<?xml version="1.0" encoding="utf-8"?>
<!-- Generator: Adobe Illustrator 24.0.1, SVG Export Plug-In . SVG Version: 6.00 Build 0)  -->
<svg version="1.1" id="Ebene_2_1_" xmlns="http://www.w3.org/2000/svg" xmlns:xlink="http://www.w3.org/1999/xlink" x="0px" y="0px"
	 viewBox="0 0 300 150" style="enable-background:new 0 0 300 150;" xml:space="preserve">
<style type="text/css">
	.st0{fill:#172C46;}
</style>
<g>
	<path class="st0" d="M224.5,65.7c-0.5,0.7-1,1.5-1.6,2c-0.6,0.6-1.4,1-2.2,0.9c-0.5-0.1-1-0.4-1.1-1c0-0.4,1-4.5,1.1-4.8
		c0.2-0.8,0.6-1.9,1.3-1.9c0.5,0,2.3,0.1,4.7,0c0.2,0,0.4,0,0.5,0.1c0.7,0.4-0.8,2.2-1.1,2.6C225.5,64.5,225,64.9,224.5,65.7z"/>
	<path class="st0" d="M213.4,64.3c1.2-1,2.2-2.2,3.1-3.5c0.2-0.2,0.3-0.5,0.3-0.8c0-0.1-0.1-0.3-0.2-0.4c-1.1-1.6-1.2-2.2-1.6-2.8
		c-0.1-0.2-0.1-0.2-0.3-0.3s-0.5,0-0.6,0.2c-0.5,0.4-0.8,1.1-1,1.8c-0.3,0.9-0.7,1.8-1.1,2.7c-0.2,0.4-0.3,0.7-0.5,1.1
		c-0.2,0.5-0.2,1.1-0.2,1.6c0.1,0.4,0.2,0.9,0.6,1c0.2,0.1,0.3,0.1,0.5,0c0.5-0.1,1-0.4,1.3-0.8"/>
	<g>
		<path class="st0" d="M237.7,37.6l-0.2,0.9c-0.1,0.4-0.4,0.7-0.8,0.7l-2.9-0.1c-0.2,0-0.5-0.1-0.6-0.3l-1-1.3
			c-0.4-0.5-0.1-1.2,0.5-1.3c1.2-0.2,3.1-0.2,4.5,0.7C237.6,37,237.7,37.3,237.7,37.6z"/>
	</g>
	<g>
		<path class="st0" d="M232.9,41.3c0.2-0.6,0.9-1.1,1.5-1.1l1.7,0.1c0.6,0,1.4,0.3,1.7,0.6s0.6,0.8,0.8,1.1c0.1,0.3,0.1,1.1,0,1.7
			l-0.5,2.2c-0.2,0.6-0.8,1-1.4,0.8l-1.4-0.4c-0.6-0.2-1.4-0.8-1.8-1.3l-0.4-0.6c-0.4-0.5-0.5-1.5-0.4-2.1L232.9,41.3z"/>
	</g>
	<g>
		<path class="st0" d="M231.4,38.7c0.4,0.5,0.6,1.5,0.4,2.1l-0.2,0.8c-0.2,0.6-0.9,1.1-1.6,1.1h-0.8c-0.7,0-1.7-0.3-2.3-0.6
			l-1.5-0.8c-0.6-0.3-0.7-1-0.3-1.5l0.6-0.7c0.4-0.5,1.3-1.1,1.9-1.4l1-0.4c0.6-0.3,1.5,0,1.9,0.5L231.4,38.7z"/>
	</g>
	<g>
		<path class="st0" d="M241.4,44.1c-0.6-0.3-1.3,0.1-1.4,0.7l-0.5,2c-0.2,0.6-0.1,1.7,0.2,2.2l1.7,3.2c0.3,0.6,0.9,0.7,1.4,0.2
			l0.1-0.2c0.5-0.5,0.9-1.4,1.1-2.1l0.3-1.5c0.1-0.7,0.1-1.7,0-2.4v-0.1c-0.2-0.6-0.8-1.4-1.4-1.6L241.4,44.1z"/>
	</g>
	<g>
		<path class="st0" d="M226,43.6c-0.1-0.6-0.7-1.3-1.3-1.6l-0.3-0.2c-0.6-0.3-1.5-0.3-2.1,0.2l-0.2,0.2c-0.5,0.4-1.3,1.3-1.6,1.9
			s-0.3,1.2,0.1,1.4s0.8,0.5,1,0.7c0.2,0.3,0.9,0.5,1.6,0.5h1.1c0.7,0,1.4-0.4,1.6-1C226,45.1,226.1,44.2,226,43.6z"/>
	</g>
	<g>
		<path class="st0" d="M227.5,44.8c-0.1-0.6,0.4-1,1.1-1l2.3,0.1c0.4,0,0.7,0.2,0.9,0.5l0.5,0.7c0.4,0.5,0.8,1.2,0.8,1.5
			s0,1.1-0.2,1.7l-0.3,1.2c-0.2,0.7-0.9,1-1.6,0.8l-2-0.7c-0.2-0.1-0.4-0.2-0.6-0.4l-1.2-1.8c-0.2-0.3-0.3-0.7-0.1-1.1l0.3-0.9
			C227.5,45.2,227.5,45,227.5,44.8L227.5,44.8z"/>
	</g>
	<g>
		<path class="st0" d="M233.8,50.4c-0.1,0.6-0.1,1.6,0.1,2.2l1.4,4.1c0.2,0.6,0.8,1,1.3,0.9s1.3-0.5,1.9-0.9l0.3-0.2
			c0.5-0.4,1.2-1.1,1.5-1.6s0.3-1.5,0-2l-1.7-3.1c-0.3-0.6-1.1-1.2-1.7-1.4l-1.3-0.4c-0.6-0.2-1.2,0.1-1.4,0.8L233.8,50.4z"/>
	</g>
	<g>
		<path class="st0" d="M228.3,51.5c0.2-0.7,0.8-1,1.5-0.7l1.4,0.6c0.6,0.3,1.3,1,1.6,1.6l1.4,3.8c0.2,0.6,0.2,1.4-0.1,1.7
			s-1.1,0.6-1.8,0.8l-2.5,0.6c-0.7,0.2-1.3-0.3-1.5-0.9l-0.6-2.7c-0.2-0.7-0.1-1.8,0-2.4L228.3,51.5z"/>
	</g>
	<g>
		<path class="st0" d="M226.6,48.8c0.4,0.5,0.5,1.4,0.4,2.1l-0.6,2.2c-0.2,0.6-0.7,0.9-1.3,0.6l-1.3-0.7c-0.6-0.3-1.2-0.9-1.4-1.3
			c-0.2-0.4-0.3-1.1-0.1-1.4c0.2-0.4,0.3-1.1,0.2-1.6s0.4-1,1-1h1c0.6,0,1.4,0.4,1.8,0.9L226.6,48.8z"/>
	</g>
	<g>
		<path class="st0" d="M218.8,58.9c0.6,0.1,1.3-0.2,1.5-0.8l0.5-1.2c0.2-0.6,0.4-1.5,0.4-2s0.1-1.1,0.3-1.3s0.2-0.7-0.1-1.2
			c-0.2-0.4-1-0.7-1.6-0.5l-2.5,0.5c-0.6,0.1-1.3,0.6-1.4,1s-0.3,1-0.2,1.3c0,0.3,0.3,1,0.6,1.5l0,0c0.3,0.6,0.8,1.3,1,1.7
			C217.5,58.4,218.2,58.8,218.8,58.9z"/>
	</g>
	<g>
		<path class="st0" d="M223.9,54.3c-0.5-0.3-1.1-0.4-1.3-0.2s-0.3,0.7-0.3,1.1c0,0.4-0.1,1.2-0.3,1.7l-0.5,1.2
			c-0.2,0.6-0.3,1.1-0.1,1.2c0.2,0.1,0.6,0.2,0.9,0.2c0.4,0,0.9,0.1,1.3,0.2c0.3,0.1,1.1,0.1,1.7,0.1l0.7-0.1c0.6-0.1,1-0.6,0.8-1.1
			l-0.5-2c-0.1-0.6-0.7-1.3-1.2-1.6L223.9,54.3z"/>
	</g>
	<g>
		<path class="st0" d="M221.3,48.1c0.1,0.6,0,1.5-0.1,1.9c-0.2,0.4-0.8,0.9-1.5,1l-2.6,0.6c-0.7,0.1-1-0.3-0.8-0.9l0.4-1.1
			c0.2-0.6,0.8-1.6,1.2-2.1l0.4-0.4c0.4-0.5,1.1-0.9,1.4-0.9c0.4,0.1,0.8,0.3,1.1,0.5S221.2,47.4,221.3,48.1z"/>
	</g>
	<g>
		<path class="st0" d="M238.4,39c-0.1,0.6,0.1,1.2,0.4,1.5s0.6,0.8,0.8,1.2c0.1,0.4,0.7,0.9,1.3,1.2l1.4,0.6c0.6,0.3,1.2,0.3,1.3,0
			s0.2-0.8,0.2-1.1s-0.1-0.9-0.3-1.1s-0.6-0.8-1-1.3l-0.5-0.5c-0.4-0.5-1.2-1.1-1.6-1.4c-0.5-0.3-1-0.5-1.3-0.5
			c-0.2,0-0.4,0.1-0.5,0.2C238.6,37.9,238.5,38.4,238.4,39z"/>
	</g>
	<path class="st0" d="M243.9,53.9c-0.1-0.1-0.1-0.3,0-0.5c1.7-3.5,2-5.1,1.6-6.8c-0.1-0.4,0.4-0.8,0.8-0.6c0.5,0.2,0.9,0.6,1.3,0.9
		c0.9,0.8,2,1.3,2.9,2.2c0.7,0.7,1.3,1.6,1.7,2.5c1.8,3.6,2.7,7.6,2.5,11.6c-0.2,0.3-0.7,0.1-1-0.2c-1.4-1.4-2.2-3.3-3.3-5
		c-0.7-1.2-1.7-2.4-2.9-3.1C246.7,54.3,244.6,54.6,243.9,53.9z"/>
	<path class="st0" d="M250.6,38.3c-0.7,0.6-1.4,1.2-2.1,1.5c-0.5,0.3-1.1,0.4-1.7,0.6c-0.3,0.1-0.6,0.2-0.9,0.3
		c-0.2,0.1-0.4,0.1-0.6,0.1c-0.3,0-0.7-0.2-0.8-0.5c-0.6-1.2-1.8-2.2-3.2-3c-0.1-0.1-0.2-0.2-0.3-0.4c-0.2-0.4,0.1-0.8,0.4-1.1
		c0.2-0.3,0.5-0.6,0.8-0.9c0.3-0.2,0.5-0.4,0.8-0.6c0.4-0.3,0.6-0.7,1-1c1.1-1,2.6-1.5,4-1.8c0.4-0.1,0.7-0.1,1.1-0.2
		c1,0,1.9,0.5,2.7,1c0.6,0.5,1.2,1,1.7,1.6c0.2,0.3,0.4,0.5,0.4,0.9c0,0.2-0.1,0.4-0.2,0.6c-0.2,0.5-0.4,1-0.7,1.4
		c-0.4,0.5-0.8,0.4-1.3,0.7C251.3,37.6,251,38,250.6,38.3z"/>
	<path class="st0" d="M226.1,37.1c0.1,0.1,0.3,0.1,0.5,0c3.4-1.9,5-2.3,6.7-2c0.4,0.1,0.7-0.5,0.6-0.9c-0.2-0.4-0.6-0.9-0.9-1.2
		c-0.8-0.9-1.4-2-2.3-2.8c-0.7-0.7-1.7-1.2-2.6-1.6c-3.7-1.6-7.8-2.3-11.7-1.8c-0.3,0.3,0,0.7,0.3,1c1.5,1.3,3.4,2,5.2,3
		c1.2,0.7,2.5,1.6,3.2,2.7C225.6,34.3,225.3,36.5,226.1,37.1z"/>
</g>
<g>
	<g>
		<path class="st0" d="M79.9,77v31.2h-3.1l-17.5-17v17H52V77h3.1l17.5,17.1V77H79.9z"/>
		<path class="st0" d="M99.2,83.2V91h9.1v5.9h-9.1v5.1h12.3v6.2h-20V77h20v6.2H99.2z"/>
		<path class="st0" d="M147.5,102.2l-0.4,6.5c-11.6-0.1-15.1-5-17.1-9.4h-1.1v8.9h-7.7V77h10.1c10.3,0,14.6,3.9,14.6,11
			c0,6-3.3,9.4-8.4,10.7C139.8,100.7,143.3,102.1,147.5,102.2z M128.9,93.3h2.3c4.2,0,6.8-1.2,6.8-4.9c0-3.5-2.1-5.2-6.4-5.2h-2.7
			L128.9,93.3L128.9,93.3z"/>
		<path class="st0" d="M165.1,83.2V91h9.1v5.9h-9.1v5.1h12.3v6.2h-20V77h20v6.2H165.1z"/>
		<path class="st0" d="M187.6,95.8V77h7.7v17.8c0,5.6,2.4,7.7,6,7.7s5.9-2,5.9-7.5V77h7.7v18.6c0,8.4-4.6,13.2-13.8,13.2
			C192.1,108.8,187.6,104.3,187.6,95.8z"/>
		<path class="st0" d="M224.8,100.3l7.5-2c0.6,2.7,2.9,4.2,6.3,4.2c2.3,0,3.8-0.8,3.8-2.3c0-4.5-16.7-2.8-16.7-13.9
			c0-6.9,6.2-9.9,12.4-9.9c5.1,0,10.7,1.9,11.5,8.7l-7,1.9c-0.6-2.8-2.4-4.3-5.4-4.3c-1.9,0-3.6,0.8-3.6,2.4c0,5.2,16.7,3,16.7,13.9
			c0,5.6-4.9,9.8-12.9,9.8C230.6,108.8,225.8,106.1,224.8,100.3z"/>
	</g>
</g>
</svg>
