<?xml version="1.0" encoding="utf-8"?>
<!-- Generator: Adobe Illustrator 24.2.0, SVG Export Plug-In . SVG Version: 6.00 Build 0)  -->
<svg version="1.1" id="Ebene_1" xmlns="http://www.w3.org/2000/svg" xmlns:xlink="http://www.w3.org/1999/xlink" x="0px" y="0px"
	 viewBox="0 0 308 143" style="enable-background:new 0 0 308 143;" xml:space="preserve">
<style type="text/css">
	.st0{enable-background:new    ;}
	.st1{fill:#192C44;}
</style>
<g class="st0">
	<path class="st1" d="M103.9,100.7l-1.3,11.2c-2.5,1.3-7.3,2.5-13.1,2.5c-7.7,0-11.6-3.7-12.5-10.4c-5.9,6.8-13.2,10.4-20.9,10.4
		c-12.7,0-18.8-9.6-18.8-22.4c0-22.3,12.3-39.2,33.1-39.2c4.7,0,8.4,0.9,11.6,2.7L87,19.4h20.7L97.2,94.2
		C96.3,100.9,98,101.7,103.9,100.7z M77.2,89.8l2.7-19.6c-2.1-1.2-4.9-2-8-2c-8.9,0-13.3,8.5-13.3,19.2c0,6.7,2.3,10.5,6.8,10.5
		C70.7,97.9,74.6,94.6,77.2,89.8z"/>
	<path class="st1" d="M113.3,96.9l6-42.4h20.7l-5.6,39.9c-0.8,6,0.8,7.5,6.8,6.4l-0.7,11.2c-2.5,0.9-6.7,2.5-13.6,2.5
		C117.3,114.5,111.3,111,113.3,96.9z M120.2,32.7c0.9-6.7,6.9-12,13.6-12c6.7,0,11.3,5.3,10.4,12c-0.9,6.5-7.1,11.9-13.6,11.9
		S119.3,39.2,120.2,32.7z"/>
	<path class="st1" d="M152.1,94.6c0-4.5,2.5-17.5,2.5-21.1c0-2.7-0.9-3.6-3.1-3.6c-1.1,0-2.1,0.1-3.1,0.3l1.2-14.1
		c3.1-1.5,9.7-3.2,15.5-3.2c6.9,0,11.5,2.9,11.5,10.7c0,2.9-3.1,22.5-3.1,26.1c0,5.3,1.7,7.3,5.3,7.3c9.5,0,12.3-15.6,12.3-27.5
		c0-5.9-0.7-11.1-1.5-15.1H211c1.1,3.9,1.5,8.8,1.5,13.7c0,26.3-12.1,46.3-37.6,46.3C159.1,114.5,152.1,106.1,152.1,94.6z"/>
	<path class="st1" d="M268,94.3l2.7,12.5c-5.2,3.6-12.7,7.6-24.8,7.6c-20.5,0-28.4-11.2-28.4-25.7c0-20.3,14.5-35.9,36.2-35.9
		c14.3,0,22,6.9,22,16.9c0,15.7-18.7,23.1-37.1,20.9c0.8,5.9,4,8.8,11.7,8.8C256.9,99.5,262.9,97.4,268,94.3z M239.4,79.5
		c9.1,0.1,16.5-1.7,16.5-8.1c0-2.4-0.9-4.7-4.7-4.7C244.9,66.7,241.2,72.9,239.4,79.5z"/>
</g>
</svg>
