<svg xmlns="http://www.w3.org/2000/svg" width="61.489" height="60.62" viewBox="0 0 61.489 60.62"><g transform="translate(-1357.178 -46.1)"><path d="M1418.306,93.858,1408,83.29a24.359,24.359,0,0,0-6.637-33.222,23.019,23.019,0,0,0-32.386,6.808,24.5,24.5,0,0,0-.443,25.7l-11,11.284a1.284,1.284,0,0,0,0,1.784,1.218,1.218,0,0,0,.775.365l7.588.6a1.245,1.245,0,0,1,1.131,1.161l.585,7.785a1.243,1.243,0,0,0,1.235,1.166,1.19,1.19,0,0,0,.861-.371l12.749-13.078a22.248,22.248,0,0,0,11.151.236l12.519,12.843a1.191,1.191,0,0,0,.861.371,1.242,1.242,0,0,0,1.234-1.166l.584-7.785a1.246,1.246,0,0,1,1.131-1.161l7.587-.6a1.252,1.252,0,0,0,1.134-1.353A1.274,1.274,0,0,0,1418.306,93.858Zm-48.441,8.767-.379-5.051a3.72,3.72,0,0,0-3.4-3.482l-4.921-.389,8.783-9.01a23.469,23.469,0,0,0,9.89,7.7Zm18.618-11.045c-11.547,0-20.907-9.6-20.907-21.447s9.36-21.446,20.907-21.446,20.907,9.6,20.907,21.446S1400.025,91.567,1388.484,91.58Zm21.271,2.511a3.72,3.72,0,0,0-3.394,3.482l-.379,5.051L1396.3,92.7a23.4,23.4,0,0,0,10.233-7.348l8.141,8.352Zm-21.271-37.835a13.882,13.882,0,1,0,13.528,13.877,13.706,13.706,0,0,0-13.528-13.877Zm0,25.232a11.358,11.358,0,1,1,11.068-11.355A11.215,11.215,0,0,1,1388.484,81.488Z" transform="translate(0 0)" fill="#f63"/></g></svg>