<svg xmlns="http://www.w3.org/2000/svg" width="45.536" height="41.892" viewBox="0 0 45.536 41.892"><path d="M1302.027,176.681h-40.072a2.735,2.735,0,0,0-2.732,2.732v29.143a2.735,2.735,0,0,0,2.732,2.732h23.065a.918.918,0,0,1,.556.189l8.973,6.722a1.821,1.821,0,0,0,2.924-1.449v-5.462h4.554a2.735,2.735,0,0,0,2.732-2.732V179.413A2.735,2.735,0,0,0,1302.027,176.681Zm.91,31.875a.912.912,0,0,1-.91.91h-5.1a1.277,1.277,0,0,0-1.275,1.275l-.006,6.005-8.972-6.723a2.748,2.748,0,0,0-1.654-.557h-23.065a.912.912,0,0,1-.911-.911V179.413a.912.912,0,0,1,.911-.911h40.072a.912.912,0,0,1,.91.911Zm-13.147-9.858a.91.91,0,0,1,.239,1.262,10.017,10.017,0,0,1-16.078,0,.911.911,0,0,1,1.507-1.025h0a8.2,8.2,0,0,0,13.067,0A.914.914,0,0,1,1289.791,198.7Z" transform="translate(-1259.223 -176.681)" fill="#f63"/></svg>