<svg xmlns="http://www.w3.org/2000/svg" width="87.299" height="95.235" viewBox="0 0 87.299 95.235"><defs><style>.a{fill:#192c44;fill-rule:evenodd;}</style></defs><g transform="translate(-885.965 -616.891)"><path class="a" d="M968.847,623.426l-23.756-6.334a5.977,5.977,0,0,0-3.169.028l-24.614,7.032a5.955,5.955,0,0,1-3.169.028l-20.685-5.516a5.943,5.943,0,0,0-7.486,5.752V699.84a5.953,5.953,0,0,0,4.416,5.751l23.755,6.333a5.944,5.944,0,0,0,3.169-.027l24.615-7.033a5.978,5.978,0,0,1,3.169-.028l20.685,5.516a5.941,5.941,0,0,0,7.487-5.75V629.176A5.953,5.953,0,0,0,968.847,623.426Zm-55.1,84.286-22.336-5.956a1.986,1.986,0,0,1-1.473-1.916V624.416a1.93,1.93,0,0,1,.589-1.41,2,2,0,0,1,1.383-.577,1.96,1.96,0,0,1,.522.071l20.688,5.515c.2.055.419.04.626.082Zm27.777-6.761c-.227.049-.464.034-.688.1l-23.121,6.606v-79.59c.228-.048.464-.032.688-.1l23.121-6.606ZM969.3,704.6a1.983,1.983,0,0,1-1.973,1.986,2.009,2.009,0,0,1-.522-.069L946.114,701c-.2-.055-.419-.04-.626-.083V621.3l22.337,5.955a1.989,1.989,0,0,1,1.472,1.917Z"/></g></svg>