<svg xmlns="http://www.w3.org/2000/svg" width="392" height="110" viewBox="0 0 392 110"><text transform="translate(0 84)" fill="#192c44" font-size="20" font-family="Laca-SemiBold, Laca" font-weight="600"><tspan x="2.93" y="19">Best Schools</tspan></text><g transform="translate(28)" opacity="0.997"><path d="M806.113,715.472a5.639,5.639,0,0,1,6.683-.748,4.933,4.933,0,0,0,6.347-2.22,5.644,5.644,0,0,1,5.69-3.583,4.938,4.938,0,0,0,4.755-4.755,5.646,5.646,0,0,1,3.584-5.689,4.935,4.935,0,0,0,2.22-6.348,5.639,5.639,0,0,1,.748-6.683,4.939,4.939,0,0,0-.748-6.683,5.646,5.646,0,0,1-2.22-6.347,4.933,4.933,0,0,0-3.584-5.69,5.646,5.646,0,0,1-4.755-4.755,4.935,4.935,0,0,0-5.69-3.584,5.645,5.645,0,0,1-6.347-2.22,4.937,4.937,0,0,0-6.683-.747,5.64,5.64,0,0,1-6.683.747,4.933,4.933,0,0,0-6.347,2.22,5.645,5.645,0,0,1-5.69,3.584,4.936,4.936,0,0,0-4.755,4.755,5.647,5.647,0,0,1-3.584,5.69,4.933,4.933,0,0,0-2.22,6.347,5.639,5.639,0,0,1-.748,6.683,4.938,4.938,0,0,0,.748,6.683,5.647,5.647,0,0,1,2.22,6.348,4.934,4.934,0,0,0,3.584,5.689,5.646,5.646,0,0,1,4.755,4.755,4.934,4.934,0,0,0,5.69,3.583,5.646,5.646,0,0,1,6.347,2.22,4.938,4.938,0,0,0,6.683.748" transform="translate(-775.113 -654.446)" fill="#e33d13"/></g><g transform="translate(41.4 12.794)"><g transform="translate(0 0)"><path d="M462.252,398.478h-3.227a.577.577,0,0,0-.52.311.586.586,0,0,0,.517.854h3.227a.577.577,0,0,0,.52-.311A.586.586,0,0,0,462.252,398.478Z" transform="translate(-458.44 -381.337)" fill="#fff"/><path d="M611.665,398.478h-3.227a.577.577,0,0,0-.52.311.586.586,0,0,0,.517.854h3.227a.576.576,0,0,0,.52-.311A.586.586,0,0,0,611.665,398.478Z" transform="translate(-576.8 -381.337)" fill="#fff"/><path d="M541.731,319.809v-3.224a.576.576,0,0,0-.311-.52.586.586,0,0,0-.854.517v3.23a.586.586,0,0,0,.854.517A.576.576,0,0,0,541.731,319.809Z" transform="translate(-523.498 -316)" fill="#fff"/><path d="M590.9,340.352l-2.178,2.178a.616.616,0,0,0,0,.811.617.617,0,0,0,.811,0l2.178-2.178a.616.616,0,0,0,0-.811A.527.527,0,0,0,590.9,340.352Z" transform="translate(-561.523 -335.14)" fill="#fff"/><path d="M485.764,343.688a.575.575,0,0,0,.405-.152.616.616,0,0,0,0-.81l-2.178-2.229a.573.573,0,1,0-.811.811l2.178,2.178A.625.625,0,0,0,485.764,343.688Z" transform="translate(-477.918 -335.285)" fill="#fff"/><path d="M516.109,364.719a7.219,7.219,0,1,0,7.244,7.193A7.242,7.242,0,0,0,516.109,364.719Zm0,13.272a6.079,6.079,0,1,1,6.079-6.079A6.1,6.1,0,0,1,516.109,377.991Z" transform="translate(-498.385 -354.594)" fill="#fff"/><path d="M508.356,353.392l1.013-2.432a.7.7,0,0,0,0-.456.535.535,0,0,0-.355-.3l-2.533-.76-.152-2.634a.626.626,0,0,0-.2-.405.517.517,0,0,0-.456-.1l-2.634.405-1.267-2.33a.681.681,0,0,0-.355-.3.517.517,0,0,0-.456.1l-2.178,1.52-2.178-1.52a.517.517,0,0,0-.456-.1.536.536,0,0,0-.355.3l-1.368,2.33-2.634-.456a.516.516,0,0,0-.456.1.461.461,0,0,0-.2.405l-.152,2.634-2.533.76a.536.536,0,0,0-.355.3.7.7,0,0,0,0,.456l1.013,2.432-1.976,1.773a.625.625,0,0,0-.2.405.461.461,0,0,0,.2.405l1.976,1.773-1.013,2.432a.7.7,0,0,0,0,.456.536.536,0,0,0,.355.3l2.533.76.1,1.773-2.837,6.028-.557,1.368a.539.539,0,0,0,.1.608.631.631,0,0,0,.608.152l4.559-1.418,2.482,4.2a.582.582,0,0,0,.557.3.61.61,0,0,0,.506-.355l2.33-5.775,2.33,5.775a.551.551,0,0,0,.507.355h.051a.557.557,0,0,0,.506-.3l2.482-4.2,4.559,1.418a.666.666,0,0,0,.608-.152.539.539,0,0,0,.1-.608l-.557-1.317-2.989-6.383c0-.051-.051-.051-.051-.1l.1-1.317,2.533-.76a.535.535,0,0,0,.355-.3.7.7,0,0,0,0-.456l-1.013-2.432,1.975-1.773a.624.624,0,0,0,.2-.405.461.461,0,0,0-.2-.405Zm-.065,16.488.1.251-3.824-1.157a.574.574,0,0,0-.654.252L501.8,372.8l-2.415-5.987a.611.611,0,0,0-1.107,0l-2.415,5.987-2.113-3.572a.517.517,0,0,0-.654-.252l-3.824,1.157,2.516-5.283h.1l2.616-.453,1.258,2.314a.677.677,0,0,0,.352.3.513.513,0,0,0,.453-.1l2.163-1.509,2.164,1.509a.727.727,0,0,0,.352.1h.151a.533.533,0,0,0,.352-.3l1.258-2.314,2.616.453a.856.856,0,0,0,.352-.05Zm-1-12.774a.537.537,0,0,0-.152.659l.912,2.229-2.33.659a.493.493,0,0,0-.405.507l-.152,2.432-2.381-.405a.544.544,0,0,0-.608.3l-1.165,2.128-1.976-1.368a.532.532,0,0,0-.658,0l-1.976,1.368-1.165-2.128a.558.558,0,0,0-.507-.3h-.1l-2.381.405-.1-2.432a.546.546,0,0,0-.405-.507l-2.33-.659.912-2.229a.553.553,0,0,0-.152-.659l-1.773-1.621,1.773-1.621a.537.537,0,0,0,.152-.659l-.912-2.229,2.33-.659a.493.493,0,0,0,.405-.506l.152-2.432,2.381.405a.544.544,0,0,0,.608-.3l1.165-2.128,1.975,1.368a.532.532,0,0,0,.659,0l1.976-1.368,1.165,2.128a.578.578,0,0,0,.608.3l2.381-.405.152,2.432a.546.546,0,0,0,.405.506l2.33.659-.912,2.229a.553.553,0,0,0,.152.659l1.773,1.621Z" transform="translate(-481.007 -338.222)" fill="#fff"/></g></g><g transform="translate(-768 -855)"><g transform="translate(934 855)" opacity="0.997"><path d="M806.113,715.472a5.639,5.639,0,0,1,6.683-.748,4.933,4.933,0,0,0,6.347-2.22,5.644,5.644,0,0,1,5.69-3.583,4.938,4.938,0,0,0,4.755-4.755,5.646,5.646,0,0,1,3.584-5.689,4.935,4.935,0,0,0,2.22-6.348,5.639,5.639,0,0,1,.748-6.683,4.939,4.939,0,0,0-.748-6.683,5.646,5.646,0,0,1-2.22-6.347,4.933,4.933,0,0,0-3.584-5.69,5.646,5.646,0,0,1-4.755-4.755,4.935,4.935,0,0,0-5.69-3.584,5.645,5.645,0,0,1-6.347-2.22,4.937,4.937,0,0,0-6.683-.747,5.64,5.64,0,0,1-6.683.747,4.933,4.933,0,0,0-6.347,2.22,5.645,5.645,0,0,1-5.69,3.584,4.936,4.936,0,0,0-4.755,4.755,5.647,5.647,0,0,1-3.584,5.69,4.933,4.933,0,0,0-2.22,6.347,5.639,5.639,0,0,1-.748,6.683,4.938,4.938,0,0,0,.748,6.683,5.647,5.647,0,0,1,2.22,6.348,4.934,4.934,0,0,0,3.584,5.689,5.646,5.646,0,0,1,4.755,4.755,4.934,4.934,0,0,0,5.69,3.583,5.646,5.646,0,0,1,6.347,2.22,4.938,4.938,0,0,0,6.683.748" transform="translate(-775.113 -654.446)" fill="#e33d13"/></g></g><g transform="translate(-873 -854)"><g transform="translate(1175 855)" opacity="0.997"><path d="M806.113,715.472a5.639,5.639,0,0,1,6.683-.748,4.933,4.933,0,0,0,6.347-2.22,5.644,5.644,0,0,1,5.69-3.583,4.938,4.938,0,0,0,4.755-4.755,5.646,5.646,0,0,1,3.584-5.689,4.935,4.935,0,0,0,2.22-6.348,5.639,5.639,0,0,1,.748-6.683,4.939,4.939,0,0,0-.748-6.683,5.646,5.646,0,0,1-2.22-6.347,4.933,4.933,0,0,0-3.584-5.69,5.646,5.646,0,0,1-4.755-4.755,4.935,4.935,0,0,0-5.69-3.584,5.645,5.645,0,0,1-6.347-2.22,4.937,4.937,0,0,0-6.683-.747,5.64,5.64,0,0,1-6.683.747,4.933,4.933,0,0,0-6.347,2.22,5.645,5.645,0,0,1-5.69,3.584,4.936,4.936,0,0,0-4.755,4.755,5.647,5.647,0,0,1-3.584,5.69,4.933,4.933,0,0,0-2.22,6.347,5.639,5.639,0,0,1-.748,6.683,4.938,4.938,0,0,0,.748,6.683,5.647,5.647,0,0,1,2.22,6.348,4.934,4.934,0,0,0,3.584,5.689,5.646,5.646,0,0,1,4.755,4.755,4.934,4.934,0,0,0,5.69,3.583,5.646,5.646,0,0,1,6.347,2.22,4.938,4.938,0,0,0,6.683.748" transform="translate(-775.113 -654.446)" fill="#e33d13"/></g></g><g transform="translate(-391.107 -158.614)"><path d="M739.914,194.957a49.135,49.135,0,0,0,1.56-5c.221-.844.424-1.689.622-2.537.036-.15.076-.3.117-.456a4.1,4.1,0,0,0,.134-2.41,2.125,2.125,0,0,0-1.363-1.3.567.567,0,0,0-.069-.018,1.973,1.973,0,0,0-2.329,1.606c-.094.506-.209,1.134-.353,1.815a.316.316,0,0,1-.185.225.294.294,0,0,1-.278-.018,5.781,5.781,0,0,1-1.8-1.911,2.139,2.139,0,0,0-2.613-.879,2.128,2.128,0,0,0-1.078,2.995,8.288,8.288,0,0,0,4.1,3.868.858.858,0,0,1,.469,1.076,15.483,15.483,0,0,1-.78,1.935,7.062,7.062,0,0,1-2.411,2.521,1.976,1.976,0,0,1-1.408.472,2.169,2.169,0,0,1-1.271-1.069c-.18-.277-.366-.551-.551-.824-.3-.444-.612-.9-.885-1.36a8.792,8.792,0,0,1-1.415-4.552V177.68a2.022,2.022,0,0,0-1.832-2.061,1.97,1.97,0,0,0-2.109,1.97v1.086a.476.476,0,0,1-.159.355.435.435,0,0,1-.348.113,4.783,4.783,0,0,1-2.642-1.126,2.141,2.141,0,1,0-2.7,3.321,9.379,9.379,0,0,0,5.067,1.628.835.835,0,0,1,.778.828v5.337a13.64,13.64,0,0,0,2.007,6.621,1.193,1.193,0,0,1,.01,1.221,1.289,1.289,0,0,1-1.131.642h-.009a5.769,5.769,0,0,1-3.111-1.368.093.093,0,0,1-.037-.066.087.087,0,0,1,.021-.068c1.491-1.737,1.607-2.288,1.646-2.467a1.862,1.862,0,0,0-.92-2.01.542.542,0,0,0-.079-.047,1.877,1.877,0,0,0-1.526-.061,1.9,1.9,0,0,0-1.077,1.109c-.074.2-.187.5-.308.8a.085.085,0,0,1-.078.056.079.079,0,0,1-.086-.044c-.326-.531-.652-1.086-.812-1.373a2.234,2.234,0,0,0-3.955,2.075c1.19,2.376,3.765,6.492,7.632,7.352,1.39.306,2.533.517,3.4.628A1.407,1.407,0,0,1,727,203.52v5.313a.563.563,0,0,0,.563.563h4.5a.563.563,0,0,0,.563-.563v-5.618a2.167,2.167,0,0,1,1.134-1.9,17.263,17.263,0,0,0,2.083-1.336.715.715,0,0,1,.812-.022,11.008,11.008,0,0,0,2.686,1.171,2.027,2.027,0,0,0,1.247-3.852,9.765,9.765,0,0,1-1.021-.422.5.5,0,0,1-.264-.3.475.475,0,0,1,.039-.38A8.814,8.814,0,0,0,739.914,194.957Zm-1.676,1.93a1.64,1.64,0,0,0,.848.977,10.735,10.735,0,0,0,1.144.473.9.9,0,0,1-.557,1.709A9.908,9.908,0,0,1,737.261,199a1.836,1.836,0,0,0-2.083.074,16.082,16.082,0,0,1-1.948,1.248,3.293,3.293,0,0,0-1.724,2.893v5.055h-3.378v-4.75a2.533,2.533,0,0,0-2.212-2.507c-.83-.106-1.939-.312-3.295-.611-3.41-.759-5.767-4.557-6.868-6.756a1.1,1.1,0,0,1,.45-1.434,1.067,1.067,0,0,1,.83-.12,1.106,1.106,0,0,1,.685.53c.162.292.5.863.834,1.41a1.218,1.218,0,0,0,2.167-.181c.126-.313.244-.619.321-.831a.77.77,0,0,1,.438-.45.734.734,0,0,1,.556,0l.05.029a.737.737,0,0,1,.4.81,7.47,7.47,0,0,1-1.4,1.97,1.2,1.2,0,0,0-.287.913,1.224,1.224,0,0,0,.465.845,6.839,6.839,0,0,0,3.8,1.605h.013a2.4,2.4,0,0,0,2.1-1.208,2.323,2.323,0,0,0-.014-2.346,12.538,12.538,0,0,1-1.855-6.059v-5.337a1.966,1.966,0,0,0-1.829-1.952,8.279,8.279,0,0,1-4.474-1.411,1.014,1.014,0,1,1,1.289-1.566,5.888,5.888,0,0,0,3.252,1.4,1.568,1.568,0,0,0,1.226-.389,1.6,1.6,0,0,0,.536-1.2v-1.086a.845.845,0,0,1,.91-.845.906.906,0,0,1,.779.935v11.45a10,10,0,0,0,1.576,5.129c.288.486.61.957.921,1.416.181.268.363.534.539.806a3.207,3.207,0,0,0,2,1.562,2.988,2.988,0,0,0,2.243-.642,8.231,8.231,0,0,0,2.8-2.952,16.785,16.785,0,0,0,.84-2.079,1.97,1.97,0,0,0-1.13-2.487,7.18,7.18,0,0,1-3.517-3.354,1.027,1.027,0,0,1-.125-.484,1,1,0,0,1,.632-.93,1.013,1.013,0,0,1,1.234.423,6.883,6.883,0,0,0,2.159,2.274,1.439,1.439,0,0,0,2.166-.93c.145-.69.262-1.325.364-1.872a.856.856,0,0,1,.945-.688.987.987,0,0,1,.637.589,3.18,3.18,0,0,1-.155,1.76c-.045.166-.088.33-.125.49-.2.84-.4,1.674-.616,2.509a47.954,47.954,0,0,1-1.525,4.893,7.656,7.656,0,0,1-.493,1.058A1.6,1.6,0,0,0,738.238,196.887Z" transform="translate(-4.258)" fill="#fff"/><path d="M768.988,175.628a2.252,2.252,0,1,0,1.592.659A2.252,2.252,0,0,0,768.988,175.628Zm0,3.378a1.126,1.126,0,1,1,.8-.33A1.126,1.126,0,0,1,768.988,179.006Z" transform="translate(-38.925 -0.01)" fill="#fff"/><path d="M710.359,191.858a2.252,2.252,0,1,0-2.252-2.252A2.252,2.252,0,0,0,710.359,191.858Zm0-3.378a1.126,1.126,0,1,1-1.126,1.126A1.126,1.126,0,0,1,710.359,188.48Z" transform="translate(0 -7.795)" fill="#fff"/><path d="M785.189,187.368a1.689,1.689,0,1,0-1.688,1.689A1.689,1.689,0,0,0,785.189,187.368Zm-2.252,0a.563.563,0,1,1,.563.563A.563.563,0,0,1,782.938,187.368Z" transform="translate(-48.934 -6.682)" fill="#fff"/><path d="M723.211,205.794a1.689,1.689,0,1,0-1.689,1.689A1.689,1.689,0,0,0,723.211,205.794Zm-2.252,0a.563.563,0,1,1,.563.563A.563.563,0,0,1,720.959,205.794Z" transform="translate(-7.785 -18.916)" fill="#fff"/><path d="M777.248,195.744a.348.348,0,0,0-.108.034.328.328,0,0,0-.1.051.587.587,0,0,0-.084.068.564.564,0,0,0,0,.8.612.612,0,0,0,.084.068.328.328,0,0,0,.1.051.358.358,0,0,0,.108.034.663.663,0,0,0,.107.011.563.563,0,0,0,.4-.963A.582.582,0,0,0,777.248,195.744Z" transform="translate(-45.603 -13.359)" fill="#fff"/><path d="M732.105,216.957a.563.563,0,0,0,.005-1.126h-.005a.563.563,0,1,0,0,1.126Z" transform="translate(-15.559 -26.701)" fill="#fff"/></g><g transform="translate(-844.337 -167.349)"><path d="M1056.887,205.818V193.265a4.236,4.236,0,0,0-4.236-4.236h-22.077a4.236,4.236,0,0,0-4.236,4.236v12.553a4.236,4.236,0,0,0,4.236,4.236h22.077A4.236,4.236,0,0,0,1056.887,205.818Zm-1.412,0a2.824,2.824,0,0,1-2.824,2.824h-22.077a2.824,2.824,0,0,1-2.824-2.824v-6.411h27.726Zm0-7.823h-27.726v-2.69h27.726Zm0-4.088h-27.726v-.642a2.824,2.824,0,0,1,2.824-2.824h22.077a2.824,2.824,0,0,1,2.824,2.824Z" transform="translate(0 0)" fill="#fff"/></g><text transform="translate(135 84)" fill="#192c44" font-size="20" font-family="Laca-SemiBold, Laca" font-weight="600"><tspan x="26.87" y="19">No fees</tspan></text><text transform="translate(275 84)" fill="#192c44" font-size="20" font-family="Laca-SemiBold, Laca" font-weight="600"><tspan x="6.42" y="19">Eco-friendly</tspan></text></svg>