<svg xmlns="http://www.w3.org/2000/svg" width="213.635" height="256.131" viewBox="0 0 213.635 256.131"><g transform="translate(1.635)"><circle cx="106" cy="106" r="106" transform="translate(0)" fill="#f48205"/><text transform="translate(65 29)" fill="#192c44" font-size="120" font-family="Laca-Bold, Laca" font-weight="700" letter-spacing="0.01em"><tspan x="4.04" y="112">2</tspan></text><path d="M447.97,358.237l-7.477-11a4.33,4.33,0,0,0-2.4-1.667c-4.674-1.266-19.092-5.617-23.767-12.24l-10.517-17.065s-5.143-7.479.935-11.22c0,0,6.431-4.595,11.553,4.891a5.881,5.881,0,0,0,.322.532c.963,1.409,5.481,7.667,9.629,7.667.134,0,15.02,1.588,16.3-6.922a10.828,10.828,0,0,1,.254-1.161c.636-2.391,1.9-11.363-12.58-17.394,0,0-6.909-3.1-15.308,7.481a8.442,8.442,0,0,1-4.932,3.083,6.478,6.478,0,0,1-7.2-3.168c-.2-.32-.421-.634-.641-.946-.7-.995-2.237-4.183,2.368-8.788l9.349-8.416s9.352-7.947,20.1-3.271l7.5,4.84L458.741,296.4m.606-12.923-16.969-26.814-9.817-8.882c-7.479-7.481-12.155-.935-12.155-.935-3.741,4.208.935,9.817.935,9.817l8.882,8.416,3.973,13.79m51.156,74.5L473.2,337.519c-.1-.126-.19-.256-.278-.387-1.9-2.846-3.867-5.37-3.822-8.692l.6-44.033a7.724,7.724,0,0,0-1.17-4.2l-17.966-28.93c-7.479-9.349-15.661-3.038-15.661-3.038" transform="translate(-401.326 -104.19)" fill="none" stroke="#182c45" stroke-linecap="round" stroke-linejoin="round" stroke-width="3"/></g></svg>