<svg xmlns="http://www.w3.org/2000/svg" width="265.897" height="212" viewBox="0 0 265.897 212"><circle cx="106" cy="106" r="106" transform="translate(53.897)" fill="#f48205"/><text transform="translate(118.897 33)" fill="#192c44" font-size="120" font-family="Laca-Bold, Laca" font-weight="700" letter-spacing="0.01em"><tspan x="1.58" y="112">4</tspan></text><g transform="translate(-434.863 -317.507)"><path d="M454.184,423.509q-1.171-.01-2.285.045a33.223,33.223,0,0,0-16.226,5.021,1.98,1.98,0,0,0,.2,3.321l16.006,9.037a1.98,1.98,0,0,0,1.964-.008l3.791-2.191,1.218,5.434a1.976,1.976,0,0,0,.959,1.291l1.762,1a41.4,41.4,0,0,0-7.448,3.529c-20.614,12.368-18.763,32.179-18.763,32.179a1.981,1.981,0,0,0,2.973,1.492l15.832-9.347a1.978,1.978,0,0,0,.974-1.7V468.23l5.315,1.658a1.977,1.977,0,0,0,1.593-.182l15.21-8.948a7.929,7.929,0,0,0,3.2,1.917c-.558,2.741-2.024,10.161-3.347,20.56-1.489,11.7-2.545,25.262-.611,34.8-23.593,1.681-39.875,7.583-39.875,7.583a1.979,1.979,0,1,0,1.153,3.787,1.914,1.914,0,0,0,.208-.076s21.43-7.789,50.779-7.789,50.8,7.789,50.8,7.789a1.979,1.979,0,1,0,1.345-3.711s-15.747-5.7-38.7-7.491c-1.292-3.12-10.625-26.935-7.7-55.057.071,0,.137.022.208.022a7.9,7.9,0,0,0,5.594-2.327l15.21,8.948a1.974,1.974,0,0,0,1.592.182l5.315-1.658v4.375a1.98,1.98,0,0,0,.974,1.7l15.832,9.346a1.98,1.98,0,0,0,2.973-1.492s1.851-19.81-18.762-32.179a41.371,41.371,0,0,0-7.449-3.529l1.763-1a1.977,1.977,0,0,0,.954-1.291l1.222-5.435,3.792,2.192a1.978,1.978,0,0,0,1.963.008L541.7,431.9a1.979,1.979,0,0,0,.2-3.32,33.217,33.217,0,0,0-16.227-5.021,38.6,38.6,0,0,0-21.023,5.18c-8.914,4.948-13.541,11.3-15.86,16.964-2.32-5.663-6.949-12.016-15.863-16.964a39.19,39.19,0,0,0-18.735-5.226Zm.255,3.819A36.159,36.159,0,0,1,471,432.2c8.192,4.547,12.19,10.1,14.159,15.016a28.864,28.864,0,0,0-5.3-1.9,29.155,29.155,0,0,0-5.257-.808,31.328,31.328,0,0,0-7.6.483l-4.48-2.536-1.616-7.205a1.98,1.98,0,0,0-2.922-1.283l-5.145,2.973-11.963-6.757a28.958,28.958,0,0,1,13.564-2.849Zm68.687,0a28.948,28.948,0,0,1,13.563,2.849l-11.963,6.756-5.145-2.972a1.978,1.978,0,0,0-2.922,1.283l-1.616,7.205-4.48,2.536a31.363,31.363,0,0,0-7.607-.483,29.216,29.216,0,0,0-5.253.807,28.769,28.769,0,0,0-5.3,1.91c1.968-4.915,5.967-10.475,14.163-15.025a36.176,36.176,0,0,1,16.563-4.866Zm-51.344,21.058a25.509,25.509,0,0,1,6.239.584,7.89,7.89,0,0,0-3.088,6.215,7.73,7.73,0,0,0,.336,2.15L460.8,465.85l-7.046-2.2a1.981,1.981,0,0,0-2.571,1.89v5.941l-11.832,6.984c.381-5.456,2.882-16.727,16.807-25.082a32.153,32.153,0,0,1,15.627-4.994Zm34,0a32.161,32.161,0,0,1,15.627,4.994c13.926,8.356,16.426,19.626,16.807,25.083l-11.832-6.985v-5.941a1.98,1.98,0,0,0-2.57-1.89l-7.047,2.2L502.3,457.335a7.729,7.729,0,0,0,.337-2.149,7.891,7.891,0,0,0-3.085-6.216,25.581,25.581,0,0,1,6.235-.583Zm-22.929,2.838a3.952,3.952,0,1,1-3.958,3.962A3.918,3.918,0,0,1,482.853,451.224Zm11.862,0a3.952,3.952,0,1,1-3.962,3.962A3.932,3.932,0,0,1,494.715,451.224Zm-5.937,9.126a7.942,7.942,0,0,0,1.863,1.573c-2.915,26.232,4.541,48.839,7.225,55.916-2.944-.156-5.967-.259-9.1-.259-2.825,0-5.549.087-8.222.216-1.842-8.415-1.007-22.253.495-34.061,1.368-10.755,2.953-18.609,3.4-20.807a7.88,7.88,0,0,0,4.333-2.578Z" fill="#192c44"/></g></svg>