<svg xmlns="http://www.w3.org/2000/svg" width="216" height="226.543" viewBox="0 0 216 226.543"><circle cx="106" cy="106" r="106" transform="translate(4)" fill="#f48205"/><text transform="translate(69 40)" fill="#192c44" font-size="120" font-family="Laca-Bold, Laca" font-weight="700" letter-spacing="0.01em"><tspan x="6.08" y="112">3</tspan></text><g transform="translate(-65.786 -775.669)"><path d="M141.953,927.669H70.648a4.867,4.867,0,0,0-4.862,4.861v51.859a4.867,4.867,0,0,0,4.862,4.861h41.043a1.651,1.651,0,0,1,.991.337l15.965,11.963a3.24,3.24,0,0,0,5.2-2.579V989.25h8.1a4.867,4.867,0,0,0,4.862-4.861V932.53A4.867,4.867,0,0,0,141.953,927.669Zm1.621,56.72a1.622,1.622,0,0,1-1.621,1.62h-9.075a2.273,2.273,0,0,0-2.269,2.269l-.009,10.686L114.635,987a4.892,4.892,0,0,0-2.944-.992H70.648a1.624,1.624,0,0,1-1.62-1.621V932.53a1.622,1.622,0,0,1,1.62-1.621h71.305a1.623,1.623,0,0,1,1.621,1.621ZM120.18,966.848a1.617,1.617,0,0,1,.425,2.245,17.821,17.821,0,0,1-28.609,0,1.621,1.621,0,1,1,2.68-1.823h0a14.589,14.589,0,0,0,23.252-.005A1.626,1.626,0,0,1,120.18,966.848Z" fill="#192c44"/></g></svg>