<svg xmlns="http://www.w3.org/2000/svg" width="52.56" height="45.991" viewBox="0 0 52.56 45.991"><g transform="translate(0 0)"><path d="M917.13,763.786a.821.821,0,0,0-1.1-.7l-11.047,4.087-11.588-2.106a.819.819,0,0,0-.965.878c.015.171,1.566,17.036,8.934,30.81-.014.265.346,4.133.555,6.6a6.207,6.207,0,1,0,12.366-1.082c-.156-1.734-.536-6.321-.6-6.6C918.547,780.835,917.146,763.956,917.13,763.786Zm-8.633,43.58a4.567,4.567,0,0,1-4.945-4.148l-.5-5.67,9.094-.795.5,5.669A4.568,4.568,0,0,1,908.5,807.366Zm-3.372-17.237a1.857,1.857,0,0,1,3.7-.324l.485,5.546-3.7.323Zm7.018,4.974-1.2.105-.485-5.546a3.5,3.5,0,0,0-6.971.609l.485,5.546-1.2.1c-6.12-11.473-8.128-25.154-8.6-29.042l3.285.6a96.86,96.86,0,0,0,3.155,15.226.821.821,0,1,0,1.574-.469,94.933,94.933,0,0,1-3.026-14.447l5.123.931.325,3.717a.821.821,0,1,0,1.636-.143l-.325-3.717,4.882-1.806a94.562,94.562,0,0,1-.484,14.753.821.821,0,0,0,.721.91.682.682,0,0,0,.1.006.82.82,0,0,0,.814-.727,96.538,96.538,0,0,0,.477-15.542l3.132-1.158C915.781,768.918,916.181,782.733,912.143,795.1Z" transform="translate(-892.424 -763.035)" fill="#f63"/><path d="M966.536,765.947a.821.821,0,0,0-.965-.88l-11.588,2.106-11.047-4.087a.821.821,0,0,0-1.1.7c-.015.171-1.416,17.05,3.449,31.895-.065.271-.34,3.7-.6,6.6A6.214,6.214,0,0,0,950.322,809c.184.016.365.025.546.025a6.215,6.215,0,0,0,6.178-5.666c.147-1.729.571-6.319.555-6.6C964.97,782.982,966.521,766.116,966.536,765.947Zm-23.138-.938,3.13,1.158a96.907,96.907,0,0,0,.464,15.543.821.821,0,1,0,1.631-.188,94.953,94.953,0,0,1-.471-14.754l4.883,1.806-.325,3.717a.821.821,0,1,0,1.636.143l.325-3.717,5.122-.931a94.62,94.62,0,0,1-3.039,14.444.821.821,0,0,0,.552,1.022.792.792,0,0,0,.234.035.822.822,0,0,0,.787-.587,96.33,96.33,0,0,0,3.168-15.223l3.285-.6c-.468,3.888-2.476,17.568-8.6,29.042l-1.2-.1.486-5.545a3.5,3.5,0,0,0-6.972-.61l-.485,5.545-1.2-.105C942.786,782.74,943.183,768.919,943.4,765.009Zm9.955,30.666-3.7-.323.486-5.546a1.857,1.857,0,0,1,3.7.324Zm2.057,7.543a4.564,4.564,0,0,1-9.094-.8l.5-5.67,9.094.8Z" transform="translate(-913.979 -763.035)" fill="#f63"/></g></svg>