<svg xmlns="http://www.w3.org/2000/svg" width="30.784" height="27.06" viewBox="0 0 30.784 27.06"><g transform="matrix(-1, -0.017, 0.017, -1, 909.292, 805.554)"><g transform="translate(892.424 763.035)"><g transform="translate(0 0)"><path d="M906.679,763.468a.474.474,0,0,0-.636-.4l-6.374,2.358-6.686-1.215a.473.473,0,0,0-.557.507c.008.1.9,9.829,5.155,17.776-.008.153.2,2.385.32,3.809a3.581,3.581,0,1,0,7.135-.624c-.09-1-.309-3.647-.346-3.807C907.5,773.305,906.687,763.567,906.679,763.468ZM901.7,788.613a2.635,2.635,0,0,1-2.853-2.394l-.286-3.272,5.247-.458.286,3.271A2.636,2.636,0,0,1,901.7,788.613Zm-1.946-9.945a1.071,1.071,0,0,1,2.135-.187l.28,3.2-2.135.186Zm4.049,2.87-.691.061-.28-3.2a2.019,2.019,0,0,0-4.022.352l.28,3.2-.691.06c-3.531-6.62-4.689-14.513-4.959-16.756l1.9.344a55.878,55.878,0,0,0,1.82,8.785.474.474,0,1,0,.908-.271,54.771,54.771,0,0,1-1.746-8.336l2.956.537.188,2.145a.474.474,0,0,0,.944-.082l-.188-2.145,2.817-1.042a54.55,54.55,0,0,1-.279,8.512.474.474,0,0,0,.416.525.392.392,0,0,0,.055,0,.473.473,0,0,0,.47-.42,55.7,55.7,0,0,0,.275-8.967l1.807-.668C905.9,766.429,906.131,774.4,903.8,781.537Z" transform="translate(-892.424 -763.035)" fill="#e33d13"/><path d="M956,764.715a.473.473,0,0,0-.557-.507l-6.686,1.215-6.374-2.358a.474.474,0,0,0-.637.4c-.008.1-.817,9.837,1.99,18.4-.038.156-.2,2.136-.347,3.807a3.585,3.585,0,0,0,3.255,3.879c.106.009.211.014.315.014a3.586,3.586,0,0,0,3.565-3.269c.085-1,.329-3.646.32-3.81C955.1,774.543,955.993,764.813,956,764.715Zm-13.35-.541,1.806.668a55.914,55.914,0,0,0,.268,8.968.474.474,0,1,0,.941-.108,54.775,54.775,0,0,1-.272-8.513l2.817,1.042-.187,2.145a.474.474,0,1,0,.944.082l.187-2.145,2.955-.537a54.586,54.586,0,0,1-1.753,8.334.474.474,0,0,0,.318.589.456.456,0,0,0,.135.02.474.474,0,0,0,.454-.339,55.577,55.577,0,0,0,1.828-8.783l1.9-.344c-.27,2.243-1.429,10.136-4.96,16.756l-.691-.06.28-3.2a2.019,2.019,0,1,0-4.023-.352l-.28,3.2-.691-.061C942.3,774.4,942.528,766.43,942.652,764.174Zm5.744,17.693-2.134-.186.28-3.2a1.071,1.071,0,0,1,2.134.187Zm1.187,4.352a2.633,2.633,0,0,1-5.247-.459l.286-3.272,5.247.459Z" transform="translate(-925.679 -763.035)" fill="#e33d13"/></g></g></g></svg>