<svg xmlns="http://www.w3.org/2000/svg" width="31.549" height="28.833" viewBox="0 0 31.549 28.833">
  <g transform="translate(-1322.853 -400.745)">
    <g transform="translate(1327.912 400.745)">
      <g transform="translate(0 0)"><path
        d="M1360.475,418.859a9.933,9.933,0,0,1-.089,1.327c.013-.089.023-.174.036-.264a9.8,9.8,0,0,1-.665,2.436l.1-.237a9.7,9.7,0,0,1-.669,1.3c-.125.2-.257.405-.4.6l-.105.145c-.016.023-.036.046-.053.072-.069.092.145-.184.072-.092s-.158.2-.24.3a9.689,9.689,0,0,1-1,1.02c-.089.079-.181.155-.273.23-.039.033-.082.066-.122.1s-.122.1.014-.01.026-.02-.007,0c-.2.148-.4.29-.606.422a9.879,9.879,0,0,1-1.455.767l.237-.1a9.751,9.751,0,0,1-2.489.678c.089-.013.174-.023.263-.036a10.114,10.114,0,0,1-2.6,0c.089.013.175.023.263.036a9.888,9.888,0,0,1-2.489-.678l.237.1a9.554,9.554,0,0,1-1.3-.672c-.2-.125-.4-.257-.6-.4l-.145-.105c-.023-.016-.046-.036-.072-.053-.092-.069.184.145.092.072s-.2-.158-.293-.24a10.062,10.062,0,0,1-1.017-1c-.079-.089-.155-.181-.23-.273-.033-.039-.066-.082-.1-.122l.01.013c.109.142.02.026,0-.006-.148-.2-.287-.4-.422-.609a9.893,9.893,0,0,1-.76-1.455l.1.237a9.879,9.879,0,0,1-.665-2.436c.013.089.023.174.036.263a9.963,9.963,0,0,1,0-2.657c-.013.089-.023.174-.036.263a15.492,15.492,0,0,1,1.119-3.878l-.1.237a31.373,31.373,0,0,1,3.506-6.021c.178-.244.356-.488.537-.728.1-.128.194-.257.293-.382.016-.023.085-.112,0,0s0,0,.02-.023c.053-.066.1-.132.155-.2.369-.471.747-.932,1.133-1.389q.894-1.062,1.847-2.074c.286-.306.576-.609.876-.9h-1.4c.859.836,1.663,1.738,2.443,2.65.375.438.747.882,1.106,1.333.1.119.191.24.287.359.046.056.089.115.135.171.026.033.053.066.076.1.079.1-.152-.2-.02-.023.191.25.382.5.573.757.681.922,1.327,1.87,1.926,2.848a27.376,27.376,0,0,1,1.84,3.526l-.1-.237a15.317,15.317,0,0,1,1.119,3.878c-.013-.089-.023-.174-.036-.263a9.729,9.729,0,0,1,.092,1.32.988.988,0,1,0,1.975,0,13.416,13.416,0,0,0-.856-4.474,25.421,25.421,0,0,0-2.091-4.362,46.4,46.4,0,0,0-5.6-7.447c-.477-.527-.962-1.05-1.468-1.548a1,1,0,0,0-1.4,0c-.655.639-1.274,1.317-1.88,2a51.533,51.533,0,0,0-3.832,4.869,29.872,29.872,0,0,0-2.963,5.251,14.533,14.533,0,0,0-1.347,5.85,10.717,10.717,0,0,0,21.367,1.063,10.623,10.623,0,0,0,.076-1.208,1,1,0,0,0-.988-.988A1.017,1.017,0,0,0,1360.475,418.859Z"
        transform="translate(-1341.013 -400.745)"
        fill="#0f2236"/></g>
    </g>
    <g transform="translate(1322.852 403.045)">
      <g transform="translate(0)"><path
        d="M1336.051,433.321a9.673,9.673,0,0,1-1.017.191c.089-.013.174-.023.263-.036a9.919,9.919,0,0,1-2.594,0c.089.013.174.023.263.036a10.007,10.007,0,0,1-2.485-.678l.237.1a9.952,9.952,0,0,1-1.317-.678c-.211-.132-.418-.27-.619-.415l-.151-.112c-.128-.1.191.148.033.026-.106-.082-.208-.168-.309-.254a9.212,9.212,0,0,1-1.07-1.08c-.079-.092-.155-.184-.227-.28s.138.181.066.086l-.059-.079-.129-.178c-.151-.214-.3-.435-.431-.659a10.068,10.068,0,0,1-.622-1.234l.1.237a14.993,14.993,0,0,1-.978-3.8c.013.089.023.174.036.263a30.223,30.223,0,0,1-.036-6.835q.084-.9.207-1.8c-.013.089-.023.174-.036.263q.247-1.817.616-3.612c.151-.734.319-1.468.507-2.2.033-.122.062-.244.1-.365l-1.215.691a42.685,42.685,0,0,1,4.158,1.33c.737.27,1.465.556,2.189.863l-.237-.1c.724.306,1.442.629,2.15.974-.119-.451-.237-.9-.356-1.35a35.123,35.123,0,0,0-3.1,4.905,18.088,18.088,0,0,0-1.933,5.541,10.972,10.972,0,0,0-.092,2.746,10.716,10.716,0,0,0,7.516,9.228c.191.059.382.112.576.158a.988.988,0,0,0,.523-1.906,10.175,10.175,0,0,1-1.475-.487l.237.1a9.537,9.537,0,0,1-1.3-.672c-.2-.125-.4-.257-.6-.4l-.145-.105c-.023-.016-.046-.036-.073-.053-.092-.069.184.145.092.072s-.2-.158-.293-.24a10.069,10.069,0,0,1-1.017-1c-.079-.089-.155-.181-.23-.273-.033-.04-.066-.082-.1-.122s-.1-.122.01.013.02.026,0-.007c-.148-.2-.286-.4-.422-.609a9.882,9.882,0,0,1-.76-1.455l.1.237a9.886,9.886,0,0,1-.665-2.436c.013.089.023.175.036.264a9.97,9.97,0,0,1,0-2.657c-.013.089-.023.174-.036.263a15.491,15.491,0,0,1,1.119-3.878l-.1.237a29.756,29.756,0,0,1,2.881-5.133c.306-.448.625-.892.948-1.33a.986.986,0,0,0-.356-1.35,49.835,49.835,0,0,0-8.158-3.108c-.191-.056-.382-.109-.576-.158a1.006,1.006,0,0,0-1.215.691c-.247.879-.444,1.778-.625,2.673a50.213,50.213,0,0,0-.912,6.5,27.2,27.2,0,0,0,.379,7.506,13.464,13.464,0,0,0,1.182,3.4,10.331,10.331,0,0,0,2.683,3.3,10.667,10.667,0,0,0,8.389,2.324c.336-.046.665-.109.994-.188a.99.99,0,0,0-.524-1.909Z"
        transform="translate(-1322.853 -409)"
        fill="#0f2236"/></g>
    </g>
    <g transform="translate(1339.952 403.035)">
      <g transform="translate(0 0)"><path
        d="M1395.106,429.157a11.743,11.743,0,0,1-.691,1.04,1.17,1.17,0,0,0,.079-.106c-.016.013-.029.04-.046.056-.03.036-.06.076-.092.112-.066.079-.132.161-.2.237-.135.155-.276.306-.421.454a10.9,10.9,0,0,1-.9.8c-.079.066.125-.092.109-.082s-.036.03-.056.043c-.036.03-.076.056-.112.082-.083.059-.165.119-.247.174-.168.115-.336.221-.51.326a9.7,9.7,0,0,1-1.2.606l.237-.1a10.013,10.013,0,0,1-2.486.678c.089-.013.174-.023.263-.036a9.931,9.931,0,0,1-2.594,0c.089.013.174.023.263.036-.342-.046-.682-.112-1.017-.191V435.2a10.874,10.874,0,0,0,4.425-2.291,10.429,10.429,0,0,0,2.825-3.836,10.72,10.72,0,0,0,.859-5.123,16.9,16.9,0,0,0-1.708-5.751,32.528,32.528,0,0,0-3.012-5c-.138-.191-.277-.385-.418-.573-.118.451-.237.9-.355,1.35q1.061-.514,2.15-.975l-.237.1a49.862,49.862,0,0,1,5.949-2.084l.4-.109-1.215-.691c.1.366.191.731.28,1.1.227.958.428,1.926.6,2.9.128.721.244,1.449.339,2.176-.013-.089-.023-.174-.036-.264a36.749,36.749,0,0,1,.342,6.72c-.033.639-.089,1.277-.174,1.913.013-.089.023-.174.036-.263a14.988,14.988,0,0,1-.978,3.8l.1-.237a9.568,9.568,0,0,1-.546,1.106.987.987,0,0,0,1.705.994,13.634,13.634,0,0,0,1.561-4.688,27.653,27.653,0,0,0,.286-5.32,45.692,45.692,0,0,0-.5-5.06q-.281-1.862-.691-3.7c-.125-.56-.247-1.123-.411-1.672,0-.007,0-.016-.007-.023a1.009,1.009,0,0,0-1.215-.691,44.435,44.435,0,0,0-5.728,1.939c-1.014.411-2.019.849-3.006,1.33a.99.99,0,0,0-.355,1.35,35.685,35.685,0,0,1,3.111,4.928c.257.5.5,1.014.718,1.534l-.1-.237a15.305,15.305,0,0,1,1.119,3.878c-.013-.089-.023-.175-.036-.264a9.971,9.971,0,0,1,0,2.657c.013-.089.023-.174.036-.263a9.805,9.805,0,0,1-.665,2.436l.1-.237a9.686,9.686,0,0,1-.668,1.3c-.125.2-.256.4-.4.6l-.105.145c-.016.023-.036.046-.053.072-.069.092.145-.184.072-.092s-.158.2-.24.3a9.709,9.709,0,0,1-1,1.02c-.089.079-.181.155-.273.231l-.122.1c-.033.026-.122.1.013-.01s.026-.02-.006,0c-.2.148-.4.289-.606.421a9.9,9.9,0,0,1-1.455.767l.237-.1a10.032,10.032,0,0,1-1.475.487.994.994,0,0,0-.724.951,1.009,1.009,0,0,0,.724.952,10.713,10.713,0,0,0,11.852-5.044.986.986,0,1,0-1.7-.994Z"
        transform="translate(-1384.231 -408.965)"
        fill="#0f2236"/></g>
    </g>
  </g>
</svg>