<svg xmlns="http://www.w3.org/2000/svg" width="19.673" height="27.182" viewBox="0 0 19.673 27.182"><path d="M-109.523,207.664h0a9.829,9.829,0,0,0-9.821,9.821,10.175,10.175,0,0,0,1.584,5.322c2.028,3.358,7.667,11.69,7.7,11.753a.705.705,0,0,0,.539.285.623.623,0,0,0,.539-.285c.063-.095,5.7-8.427,7.73-11.753a10.255,10.255,0,0,0,1.584-5.322A9.877,9.877,0,0,0-109.523,207.664Zm7.16,14.478c-1.647,2.725-5.7,8.776-7.16,10.93-1.457-2.154-5.512-8.205-7.16-10.93a8.927,8.927,0,0,1-1.394-4.657,8.558,8.558,0,0,1,8.554-8.554,8.558,8.558,0,0,1,8.554,8.554A8.927,8.927,0,0,1-102.364,222.142Z" transform="translate(119.344 -207.664)" fill="#e33d13"/><path d="M-101.5,220.673a4.746,4.746,0,0,0-4.752,4.752,4.746,4.746,0,0,0,4.752,4.752,4.746,4.746,0,0,0,4.752-4.752A4.745,4.745,0,0,0-101.5,220.673Zm0,8.237a3.475,3.475,0,0,1-3.485-3.485,3.475,3.475,0,0,1,3.485-3.485,3.475,3.475,0,0,1,3.485,3.485A3.475,3.475,0,0,1-101.5,228.91Z" transform="translate(111.322 -215.635)" fill="#e33d13"/></svg>