<svg xmlns="http://www.w3.org/2000/svg" width="33.627" height="5.495" viewBox="0 0 33.627 5.495"><g transform="translate(0 0)"><path d="M56.731,77v5.291h-.526l-2.968-2.883v2.883H52V77h.526l2.968,2.9V77Z" transform="translate(-52 -76.898)" fill="#e33d13"/><path d="M92.806,78.051v1.323h1.543v1H92.806v.865h2.086v1.051H91.5V77h3.392v1.051Z" transform="translate(-84.802 -76.898)" fill="#e33d13"/><path d="M125.66,81.273l-.068,1.1c-1.967-.017-2.561-.848-2.9-1.594h-.187v1.509H121.2V77h1.713c1.747,0,2.476.661,2.476,1.865a1.732,1.732,0,0,1-1.424,1.815A2.681,2.681,0,0,0,125.66,81.273Zm-3.154-1.509h.39c.712,0,1.153-.2,1.153-.831,0-.594-.356-.882-1.085-.882h-.458v1.713Z" transform="translate(-109.465 -76.898)" fill="#e33d13"/><path d="M158.706,78.051v1.323h1.543v1h-1.543v.865h2.086v1.051H157.4V77h3.392v1.051Z" transform="translate(-139.526 -76.898)" fill="#e33d13"/><path d="M187.6,80.188V77h1.306v3.019c0,.95.407,1.306,1.018,1.306s1-.339,1-1.272V77h1.306v3.154a2.053,2.053,0,0,1-2.34,2.238A2,2,0,0,1,187.6,80.188Z" transform="translate(-164.605 -76.898)" fill="#e33d13"/><path d="M224.8,80.453l1.272-.339a.969.969,0,0,0,1.068.712c.39,0,.644-.136.644-.39,0-.763-2.832-.475-2.832-2.357,0-1.17,1.051-1.679,2.1-1.679a1.72,1.72,0,0,1,1.95,1.475l-1.187.322a.848.848,0,0,0-.916-.729c-.322,0-.611.136-.611.407,0,.882,2.832.509,2.832,2.357,0,.95-.831,1.662-2.188,1.662C225.784,81.894,224.97,81.437,224.8,80.453Z" transform="translate(-195.497 -76.4)" fill="#e33d13"/></g></svg>