<svg xmlns="http://www.w3.org/2000/svg" width="32.688" height="33.059" viewBox="0 0 32.688 33.059"><g transform="translate(-1590.203 -337.842)"><path d="M1646.463,379.535h-7.671a1.033,1.033,0,1,0,0,2.066h6.638v1.858h-10.554a1.033,1.033,0,0,0,0,2.066h11.587a1.033,1.033,0,0,0,1.033-1.033v-3.924A1.033,1.033,0,0,0,1646.463,379.535Z" transform="translate(-24.604 -23.506)"/><path d="M1600,343.7a1.393,1.393,0,0,1,0,2.283,1.033,1.033,0,0,0,1.182,1.695,3.461,3.461,0,0,0,0-5.672,1.394,1.394,0,0,1,0-2.283,1.033,1.033,0,0,0-1.182-1.694,3.46,3.46,0,0,0,0,5.671Z" transform="translate(-4.691)"/><path d="M1591.961,357.663a1.394,1.394,0,0,1,0,2.283,1.033,1.033,0,1,0,1.182,1.694,3.46,3.46,0,0,0,0-5.671,1.394,1.394,0,0,1,0-2.283,1.033,1.033,0,1,0-1.182-1.694,3.46,3.46,0,0,0,0,5.671Z" transform="translate(-0.158 -7.873)"/><path d="M1609.238,369.815l8.862-8.882a1.033,1.033,0,0,0-1.463-1.459l-8.56,8.579h-16.84a1.033,1.033,0,0,0-1.033,1.033v3.924a1.034,1.034,0,0,0,1.033,1.033H1602.1l-7.1,7.12a1.033,1.033,0,1,0,1.463,1.459l12.776-12.8Zm-16.969.3h2.6v1.858h-2.6Zm4.665,1.858v-1.858h9.08l-1.854,1.858Z" transform="translate(0 -12.025)"/></g></svg>