<svg xmlns="http://www.w3.org/2000/svg" width="44.489" height="53.184" viewBox="0 0 44.489 53.184"><path d="M1188.279,209.276l-.854-23.056-7.924-15.848-2.686-2.014a4.34,4.34,0,0,0-2.59-.864,4.278,4.278,0,0,0-3.022,1.241l-1.262-1.113a3.986,3.986,0,0,0-2.629-.989,4.1,4.1,0,0,0-2.978,1.353,6.078,6.078,0,0,0-1.113,2.638v.7a3.944,3.944,0,0,0,1.422,3.037l3.828,3.189,1.883,5.021a10.883,10.883,0,0,0-10.693,2.792l-3.834,3.835a3.865,3.865,0,0,0,.314,5.75,3.861,3.861,0,0,0-1.447,3.014v.529a7.484,7.484,0,0,0,.6,2.048l4.826,7.839a10.013,10.013,0,0,0,4.907,4.077l8.106,3.117,3.3,4.124,1.345-1.077-3.59-4.487-8.541-3.285a8.282,8.282,0,0,1-4.059-3.371l-4.826-7.84a1.429,1.429,0,0,1-.21-1.145v-.4c-.114-1.2,2.069-2.3,2.069-2.3h.633a4.651,4.651,0,0,1,1.723.959l3.155,4.056a5.992,5.992,0,0,0,5.936,2.207l1.333-.267a6.022,6.022,0,0,0,2.32-10.806l-2.443-1.744a6.317,6.317,0,0,0-8.527,1.1l-1.757,2.108a1.468,1.468,0,0,1-1.677.537h-.7a1.858,1.858,0,0,1-2.183-1.935,2.17,2.17,0,0,1,.64-1.544l3.871-3.873a9.277,9.277,0,0,1,6.6-2.734,9.374,9.374,0,0,1,5.767,1.994l9.283,7.293,1.064-1.354-9.282-7.293a10.973,10.973,0,0,0-1.691-1.087l-2.61-6.958-4.216-3.513a2.518,2.518,0,0,1-.786-1.742v-.571a2.308,2.308,0,0,1,2.237-2.269,2.262,2.262,0,0,1,1.494.561l5.907,5.169,8.543,13.67,1.461-.913-8.611-13.778-3.6-3.181a2.671,2.671,0,0,1,3.278-.149l2.36,1.77,7.576,15.152.868,23.443,11.485,9.718,1.113-1.315Zm-25.966-14.77,1.757-2.107a4.6,4.6,0,0,1,6.2-.8l2.443,1.745a4.3,4.3,0,0,1-1.658,7.718l-1.332.267a4.279,4.279,0,0,1-4.239-1.577l-3.155-4.056a3.989,3.989,0,0,0-.6-.623A3.874,3.874,0,0,0,1162.312,194.506Z" transform="translate(-1154.693 -166.634)" fill="#f63"/></svg>