<svg xmlns="http://www.w3.org/2000/svg" width="44.072" height="34.77" viewBox="0 0 44.072 34.77"><g transform="translate(-326.875 -66.145)"><g transform="translate(326.875 66.145)"><path d="M369.65,101.817a1.729,1.729,0,0,1-2.385,0,3.327,3.327,0,0,0-4.664,0,1.68,1.68,0,0,1-2.385,0,3.327,3.327,0,0,0-4.664,0,1.729,1.729,0,0,1-2.385,0,3.328,3.328,0,0,0-4.664,0,1.729,1.729,0,0,1-2.385,0,3.327,3.327,0,0,0-4.664,0,1.68,1.68,0,0,1-2.385,0,3.327,3.327,0,0,0-4.664,0,1.73,1.73,0,0,1-2.385,0,3.328,3.328,0,0,0-4.664,0,.787.787,0,0,0,1.113,1.113,1.73,1.73,0,0,1,2.385,0,3.328,3.328,0,0,0,4.664,0,1.68,1.68,0,0,1,2.385,0,3.328,3.328,0,0,0,4.664,0,1.729,1.729,0,0,1,2.385,0,3.328,3.328,0,0,0,4.664,0,1.73,1.73,0,0,1,2.385,0,3.328,3.328,0,0,0,4.664,0,1.68,1.68,0,0,1,2.385,0,3.328,3.328,0,0,0,4.664,0,1.729,1.729,0,0,1,2.385,0,3.328,3.328,0,0,0,4.664,0,.787.787,0,0,0-1.113-1.113Z" transform="translate(-326.93 -74.096)" fill="#0f2236"/><path d="M366.055,108.157l-.052.052a1.729,1.729,0,0,1-2.385,0,3.329,3.329,0,0,0-4.664,0,1.729,1.729,0,0,1-2.385,0,3.329,3.329,0,0,0-4.664,0,1.68,1.68,0,0,1-2.385,0,3.328,3.328,0,0,0-4.664,0,1.729,1.729,0,0,1-2.385,0,3.329,3.329,0,0,0-4.664,0,1.728,1.728,0,0,1-2.385,0,3.329,3.329,0,0,0-4.664,0,1.68,1.68,0,0,1-2.385,0,.769.769,0,0,0-1.113,0,.757.757,0,0,0-.106,1.166,3.328,3.328,0,0,0,4.664,0,1.729,1.729,0,0,1,2.385,0,3.328,3.328,0,0,0,4.664,0,1.729,1.729,0,0,1,2.385,0,3.328,3.328,0,0,0,4.664,0,1.729,1.729,0,0,1,2.385,0,3.328,3.328,0,0,0,4.664,0,1.728,1.728,0,0,1,2.385,0,3.328,3.328,0,0,0,4.664,0,1.729,1.729,0,0,1,2.385,0,3.2,3.2,0,0,0,2.332.954,3.345,3.345,0,0,0,2.279-.9l.053-.053a1.729,1.729,0,0,1,2.385,0,.787.787,0,0,0,1.113-1.113A3.137,3.137,0,0,0,366.055,108.157Z" transform="translate(-326.887 -75.56)" fill="#0f2236"/><path d="M327.671,78.548h13.038v9.381a3.276,3.276,0,0,0-2.967.9,1.729,1.729,0,0,1-2.385,0,3.327,3.327,0,0,0-4.664,0,1.678,1.678,0,0,1-2.385,0,.787.787,0,0,0-1.113,1.113,3.327,3.327,0,0,0,4.664,0,1.729,1.729,0,0,1,2.385,0,3.328,3.328,0,0,0,4.664,0,1.73,1.73,0,0,1,2.385,0,3.327,3.327,0,0,0,4.664,0,1.68,1.68,0,0,1,2.385,0,3.268,3.268,0,0,0,3.657.688.4.4,0,0,0,.212-.106,3.785,3.785,0,0,0,.8-.583,1.729,1.729,0,0,1,2.385,0,3.328,3.328,0,0,0,4.664,0,1.73,1.73,0,0,1,2.385,0,3.327,3.327,0,0,0,4.664,0,1.73,1.73,0,0,1,2.385,0A.787.787,0,0,0,370.6,88.83a3.329,3.329,0,0,0-4.664,0,1.729,1.729,0,0,1-2.385,0,3.327,3.327,0,0,0-4.664,0,1.729,1.729,0,0,1-2.385,0,3.294,3.294,0,0,0-3.975-.477V78.548h17.6a.795.795,0,0,0,0-1.59H357.617V69.485a3.339,3.339,0,1,0-6.678,0v7.473h-3.552V69.485a3.339,3.339,0,1,0-6.678,0v7.473H327.671a.795.795,0,1,0,0,1.59Zm23.268,6.626H342.3V82.841h8.64Zm-1.484,3.71a3.328,3.328,0,0,0-4.664,0,1.729,1.729,0,0,1-2.385,0l-.106-.106V86.763h8.64v2.6A1.878,1.878,0,0,1,349.455,88.883Zm3.074-19.4a1.749,1.749,0,1,1,3.5,0v7.473h-3.5Zm-1.59,11.766H342.3V78.6h8.64ZM342.3,69.485a1.749,1.749,0,1,1,3.5,0v7.473h-3.5Z" transform="translate(-326.875 -66.145)" fill="#0f2236"/></g></g></svg>