<svg xmlns="http://www.w3.org/2000/svg" width="240" height="27.294" viewBox="0 0 240 27.294"><g transform="translate(-2521 -5454)"><g transform="translate(1794.384 4801.732)"><path d="M749.286,669.553a.855.855,0,0,0-.227.625l1.253,7.165a1.879,1.879,0,0,1-.741,1.82,2.052,2.052,0,0,1-1.992.171l-6.424-3.35a.725.725,0,0,0-.682,0l-6.424,3.35a1.592,1.592,0,0,1-.853.229,1.839,1.839,0,0,1-1.821-2.162l1.253-7.165a.677.677,0,0,0-.228-.625l-5.23-5.115a1.878,1.878,0,0,1-.455-1.935,1.854,1.854,0,0,1,1.48-1.251l7.163-1.082a.822.822,0,0,0,.569-.4l3.238-6.538a1.9,1.9,0,0,1,1.649-1.023,1.772,1.772,0,0,1,1.651,1.023h0l3.238,6.538a.719.719,0,0,0,.569.4l7.163,1.025a1.869,1.869,0,0,1,1.08,3.186Z" fill="#e33d13"/></g><g transform="translate(1834.384 4801.732)"><path d="M749.286,669.553a.855.855,0,0,0-.227.625l1.253,7.165a1.879,1.879,0,0,1-.741,1.82,2.052,2.052,0,0,1-1.992.171l-6.424-3.35a.725.725,0,0,0-.682,0l-6.424,3.35a1.592,1.592,0,0,1-.853.229,1.839,1.839,0,0,1-1.821-2.162l1.253-7.165a.677.677,0,0,0-.228-.625l-5.23-5.115a1.878,1.878,0,0,1-.455-1.935,1.854,1.854,0,0,1,1.48-1.251l7.163-1.082a.822.822,0,0,0,.569-.4l3.238-6.538a1.9,1.9,0,0,1,1.649-1.023,1.772,1.772,0,0,1,1.651,1.023h0l3.238,6.538a.719.719,0,0,0,.569.4l7.163,1.025a1.869,1.869,0,0,1,1.08,3.186Z" fill="#e33d13"/></g><g transform="translate(1874.384 4801.732)"><path d="M749.286,669.553a.855.855,0,0,0-.227.625l1.253,7.165a1.879,1.879,0,0,1-.741,1.82,2.052,2.052,0,0,1-1.992.171l-6.424-3.35a.725.725,0,0,0-.682,0l-6.424,3.35a1.592,1.592,0,0,1-.853.229,1.839,1.839,0,0,1-1.821-2.162l1.253-7.165a.677.677,0,0,0-.228-.625l-5.23-5.115a1.878,1.878,0,0,1-.455-1.935,1.854,1.854,0,0,1,1.48-1.251l7.163-1.082a.822.822,0,0,0,.569-.4l3.238-6.538a1.9,1.9,0,0,1,1.649-1.023,1.772,1.772,0,0,1,1.651,1.023h0l3.238,6.538a.719.719,0,0,0,.569.4l7.163,1.025a1.869,1.869,0,0,1,1.08,3.186Z" fill="#e33d13"/></g><g transform="translate(1914.384 4801.732)"><path d="M749.286,669.553a.855.855,0,0,0-.227.625l1.253,7.165a1.879,1.879,0,0,1-.741,1.82,2.052,2.052,0,0,1-1.992.171l-6.424-3.35a.725.725,0,0,0-.682,0l-6.424,3.35a1.592,1.592,0,0,1-.853.229,1.839,1.839,0,0,1-1.821-2.162l1.253-7.165a.677.677,0,0,0-.228-.625l-5.23-5.115a1.878,1.878,0,0,1-.455-1.935,1.854,1.854,0,0,1,1.48-1.251l7.163-1.082a.822.822,0,0,0,.569-.4l3.238-6.538a1.9,1.9,0,0,1,1.649-1.023,1.772,1.772,0,0,1,1.651,1.023h0l3.238,6.538a.719.719,0,0,0,.569.4l7.163,1.025a1.869,1.869,0,0,1,1.08,3.186Z" fill="#e33d13"/></g><g transform="translate(1954.384 4801.732)"><path d="M749.286,669.553a.855.855,0,0,0-.227.625l1.253,7.165a1.879,1.879,0,0,1-.741,1.82,2.052,2.052,0,0,1-1.992.171l-6.424-3.35a.725.725,0,0,0-.682,0l-6.424,3.35a1.592,1.592,0,0,1-.853.229,1.839,1.839,0,0,1-1.821-2.162l1.253-7.165a.677.677,0,0,0-.228-.625l-5.23-5.115a1.878,1.878,0,0,1-.455-1.935,1.854,1.854,0,0,1,1.48-1.251l7.163-1.082a.822.822,0,0,0,.569-.4l3.238-6.538a1.9,1.9,0,0,1,1.649-1.023,1.772,1.772,0,0,1,1.651,1.023h0l3.238,6.538a.719.719,0,0,0,.569.4l7.163,1.025a1.869,1.869,0,0,1,1.08,3.186Z" fill="#e33d13"/></g><text transform="translate(2721 5456)" fill="#e33d13" font-size="20" font-family="Laca-Regular, Laca"><tspan x="0" y="19">• 54</tspan></text></g></svg>