<svg xmlns="http://www.w3.org/2000/svg" width="41.549" height="21.13" viewBox="0 0 41.549 21.13"><path d="M923.162,60.389a3.76,3.76,0,0,0-1.54.308,3.376,3.376,0,0,0-1.909,3.573l.924,11.005a4.177,4.177,0,0,0,3.9,4.189h3.449a3.913,3.913,0,0,0,7.166-.657h12.115a1.068,1.068,0,0,0,.205-.021,3.877,3.877,0,0,0,7.125.677h3.675a2.715,2.715,0,0,0,2.4-1.355,5.173,5.173,0,0,0-.021-4.743l-5.893-11.047a3.719,3.719,0,0,0-3.449-1.93H923.655C923.5,60.388,923.33,60.386,923.162,60.389Zm.472,1.971h.657l1.581,14.517a1.006,1.006,0,0,0,.308.616h-1.643a2.243,2.243,0,0,1-1.93-2.279c0-.027,0-.055,0-.082l-.924-11.026a1.434,1.434,0,0,1,.8-1.643A3.551,3.551,0,0,1,923.635,62.361Zm2.649,0h25.029a1.838,1.838,0,0,1,1.7.883l.226.431h-6.3a2.074,2.074,0,0,0-2.012,2.3v1.971a2.074,2.074,0,0,0,2.012,2.3h9.527a1.013,1.013,0,0,0,.267-.041l2.177,4.086a3.231,3.231,0,0,1,.082,2.792.764.764,0,0,1-.719.411h-3.2a3.889,3.889,0,0,0-7.7-.637,1.025,1.025,0,0,0-.1-.021H935.235a3.877,3.877,0,0,0-7.433-.575Zm20.656,3.285h7.351l1.417,2.628h-8.767c-.181,0-.041-.147-.041-.328V65.974C946.9,65.8,946.761,65.646,946.939,65.646Zm-15.5,10.082a1.91,1.91,0,1,1-1.93,1.91A1.906,1.906,0,0,1,931.437,75.727Zm19.753,0a1.91,1.91,0,1,1-1.93,1.91A1.906,1.906,0,0,1,951.189,75.727Z" transform="translate(-919.695 -60.387)" fill-rule="evenodd"/></svg>