<svg xmlns="http://www.w3.org/2000/svg" width="38.072" height="32.5" viewBox="0 0 38.072 32.5"><g transform="translate(-1184.863 -589.116)"><path d="M1208.159,591.438l.45-.961a.954.954,0,0,1,.9-.545.964.964,0,0,1,.784,1.319l-.45.96a39.663,39.663,0,0,1,8.141,5.777c2.282,2.271,5.2,5.279,4.934,8.429a.942.942,0,0,1-.624.788c-.39.13-.472.269-.566.717-.207,1.274.264,2.485.3,3.67a1.159,1.159,0,0,1-.435,1.147,1.447,1.447,0,0,1-1.538-.015c-2.306-1.534-6.8-.8-10.028.115a.954.954,0,0,1-.842-.158,36.822,36.822,0,0,0-6.908-4.286l-5.921,12.671a.976.976,0,0,1-1.248.473.952.952,0,0,1-.435-1.247l5.906-12.643a40.305,40.305,0,0,0-7.924-2.293.946.946,0,0,1-.725-.731,17.741,17.741,0,0,0-4.905-6.522c-.643-.565-1.625-.716-2.1-1.284a.932.932,0,0,1,.2-1c.778-.776,1.692-1.467,2.235-2.107a1.475,1.475,0,0,0,.406-1.534.936.936,0,0,1,.218-1.075c1.527-1.373,4-1.9,6.821-1.978a34.646,34.646,0,0,1,13.351,2.308Zm-13.279-.43a11.706,11.706,0,0,0-5.2,1.2,3.014,3.014,0,0,1-.261,1.749,27.577,27.577,0,0,1,11.929-2.508A41.579,41.579,0,0,0,1194.88,591.007Zm-6.733,5.62a20.277,20.277,0,0,1,5.05,6.193c3.544-3.846,6.781-7.222,11.566-9.317A26.728,26.728,0,0,0,1188.146,596.627Zm19.794-2.308c-5.786,1.754-9.191,5.191-13.264,9.6a38.447,38.447,0,0,1,14.512,6.465,35.518,35.518,0,0,0-1.248-16.069Zm2.453,1.821a38.858,38.858,0,0,1,.639,14.549c2.821-.709,6.25-1.237,9-.043a15.911,15.911,0,0,1-.218-1.863,58.276,58.276,0,0,0-9.418-12.643Zm3.28.688a62.809,62.809,0,0,1,6.792,9.532,2.731,2.731,0,0,1,.552-.545c-.431-2.683-2.5-4.811-4.3-6.479A36.725,36.725,0,0,0,1213.673,596.827Z" fill="#0f2236"/></g></svg>